<svg viewBox="0 0 32 32" xmlns="http://www.w3.org/2000/svg"><g data-name="Layer 2"><path d="M16 29a1 1 0 0 1-.71-.29l-7.07-7a10.91 10.91 0 0 1 0-15.48 11.07 11.07 0 0 1 15.56 0 10.91 10.91 0 0 1 0 15.48l-7.07 7A1 1 0 0 1 16 29Zm0-24a9 9 0 0 0-6.37 2.62 8.91 8.91 0 0 0 0 12.64L16 26.59l6.37-6.33a8.91 8.91 0 0 0 0-12.64A9 9 0 0 0 16 5ZM8.93 6.91Z" fill="#6a6f74" class="fill-000000"></path><path d="M16 19a5 5 0 1 1 5-5 5 5 0 0 1-5 5Zm0-8a3 3 0 1 0 3 3 3 3 0 0 0-3-3Z" fill="#6a6f74" class="fill-000000"></path></g><path d="M0 0h32v32H0z" fill="none"></path></svg>