<svg viewBox="0 0 512 512" xml:space="preserve" xmlns="http://www.w3.org/2000/svg" enable-background="new 0 0 512 512"><path d="M448.26 210.55c9.26 14.49-1.149 33.5-18.35 33.5H383L363 405.5c0 12.71-10.3 23-23 23H173c-12.7 0-23-10.29-23-23l-20-161.45H82.09c-17.2 0-27.61-19.01-18.35-33.5L235.3 90.04a36.03 36.03 0 0 1 41.4 0l171.56 120.51zM306 270c0-27.61-22.39-50-50-50s-50 22.39-50 50 22.39 50 50 50 50-22.39 50-50z" fill="#000000" class="fill-ffffff"></path><path d="M256 220c27.61 0 50 22.39 50 50s-22.39 50-50 50-50-22.39-50-50 22.39-50 50-50z" fill="#000000" class="fill-ffffff"></path><path d="M256 330c-33.084 0-60-26.916-60-60s26.916-60 60-60 60 26.916 60 60-26.916 60-60 60zm0-100c-22.056 0-40 17.944-40 40s17.944 40 40 40 40-17.944 40-40-17.944-40-40-40z" fill="#ffffff" class="fill-0b93e2"></path><path d="M340 438.5H173c-17.972 0-32.634-14.441-32.993-32.328L121.162 254.05H82.09c-11.787 0-22.205-6.173-27.868-16.513-5.663-10.339-5.254-22.441 1.092-32.372a9.997 9.997 0 0 1 2.678-2.798l171.56-120.51A45.797 45.797 0 0 1 256 73.5a45.79 45.79 0 0 1 26.446 8.356l171.562 120.511c1.066.75 1.977 1.7 2.679 2.798 6.346 9.932 6.754 22.033 1.092 32.373-5.663 10.339-16.081 16.512-27.868 16.512h-38.072l-18.845 152.122C372.635 424.059 357.972 438.5 340 438.5zM71.354 217.422c-1.54 3.358-1.415 7.179.409 10.508 2.099 3.832 5.959 6.12 10.327 6.12H130a10 10 0 0 1 9.924 8.771l20 161.45c.05.408.076.818.076 1.229 0 7.168 5.832 13 13 13h167c7.168 0 13-5.832 13-13 0-.411.025-.821.076-1.229l20-161.45A10 10 0 0 1 383 234.05h46.91c4.367 0 8.228-2.288 10.326-6.12 1.823-3.329 1.949-7.15.409-10.508L270.952 98.223c-4.4-3.09-9.571-4.723-14.952-4.723s-10.552 1.633-14.954 4.724L71.354 217.422z" fill="#ffffff" class="fill-0b93e2"></path></svg>